<svg width="26" height="27" viewBox="0 0 26 27" fill="none" xmlns="http://www.w3.org/2000/svg">
<g clip-path="url(#clip0_20_5)">
<path d="M19.5001 14.8934H14.0834V20.31C14.0834 20.9059 13.5959 21.3934 13.0001 21.3934C12.4042 21.3934 11.9167 20.9059 11.9167 20.31V14.8934H6.50008C5.90425 14.8934 5.41675 14.4059 5.41675 13.81C5.41675 13.2142 5.90425 12.7267 6.50008 12.7267H11.9167V7.31002C11.9167 6.71418 12.4042 6.22668 13.0001 6.22668C13.5959 6.22668 14.0834 6.71418 14.0834 7.31002V12.7267H19.5001C20.0959 12.7267 20.5834 13.2142 20.5834 13.81C20.5834 14.4059 20.0959 14.8934 19.5001 14.8934Z" fill="#F9F9F9" fill-opacity="0.976471"/>
</g>
<defs>
<clipPath id="clip0_20_5">
<rect width="26" height="26" fill="white" transform="translate(0 0.809998)"/>
</clipPath>
</defs>
</svg>
