<svg width="24" height="72" viewBox="0 0 24 72" fill="none" xmlns="http://www.w3.org/2000/svg">
<g clip-path="url(#clip0_575_77)">
<path d="M12 32C13.1 32 14 31.1 14 30C14 28.9 13.1 28 12 28C10.9 28 10 28.9 10 30C10 31.1 10.9 32 12 32ZM12 34C10.9 34 10 34.9 10 36C10 37.1 10.9 38 12 38C13.1 38 14 37.1 14 36C14 34.9 13.1 34 12 34ZM12 40C10.9 40 10 40.9 10 42C10 43.1 10.9 44 12 44C13.1 44 14 43.1 14 42C14 40.9 13.1 40 12 40Z" fill="#F9F9F9" fill-opacity="0.976471"/>
</g>
<defs>
<clipPath id="clip0_575_77">
<rect width="24" height="24" fill="white" transform="translate(0 24)"/>
</clipPath>
</defs>
</svg>
